# xmcd
#
# Track frame offsets:
#	150
#	14949
#	27309
#	39994
#	55208
#	68660
#	82804
#	93268
#	109268
#	124222
#	137272
#	153224
#	165009
#	176582
#
# Disc length: 2575 seconds
#
# Revision: 0
# Processed by: cddbd v1.5.2PL0 Copyright (c) Steve Scherf et al.
# Submitted via: EasyCDDAExtractor 12.0.0.1
#
DISCID=a40a0d0e
DTITLE=Various Artist - Bugg 2006
DYEAR=2007
DGENRE=
TTITLE0=Lasse Stefanz - När Countryn Kom Till Skåne
TTITLE1=Wahlströms - En Natt Med Dig
TTITLE2=Fernandoz - Tomma Löften
TTITLE3=Bhonus - Kyss Mig Hårt
TTITLE4=Blender - Why Me
TTITLE5=BlackJack - Får Jag Låna Din Fru Ikväll
TTITLE6=Sven-Ingvars - Sommar Och Sol
TTITLE7=Boogart - Någon Väntar
TTITLE8=Lasse Stefanz - Det Kanske Är Ditt Hjärtats Fel
TTITLE9=Wahlströms - Vi Gör Det Ikväll
TTITLE10=Bhonus - Stannar
TTITLE11=BlackJack - I Saw Linda Yesterday
TTITLE12=Fernandoz - Dina Blåa Ögon
TTITLE13=Sven-Ingvars - Lika Ung Som Då
EXTD=
EXTT0=
EXTT1=
EXTT2=
EXTT3=
EXTT4=
EXTT5=
EXTT6=
EXTT7=
EXTT8=
EXTT9=
EXTT10=
EXTT11=
EXTT12=
EXTT13=
PLAYORDER=
